<?xml version="1.0" encoding="UTF-8" standalone="no"?>
<!-- Created with Inkscape (http://www.inkscape.org/) -->

<svg
   xmlns:dc="http://purl.org/dc/elements/1.1/"
   xmlns:cc="http://creativecommons.org/ns#"
   xmlns:rdf="http://www.w3.org/1999/02/22-rdf-syntax-ns#"
   xmlns:svg="http://www.w3.org/2000/svg"
   xmlns="http://www.w3.org/2000/svg"
   xmlns:sodipodi="http://sodipodi.sourceforge.net/DTD/sodipodi-0.dtd"
   xmlns:inkscape="http://www.inkscape.org/namespaces/inkscape"
   width="12.864264mm"
   height="12.890507mm"
   viewBox="0 0 12.864264 12.890507"
   version="1.1"
   id="svg7666"
   inkscape:version="0.92.4 (5da689c313, 2019-01-14)"
   sodipodi:docname="pin-machine.svg">
  <defs
     id="defs7660">
    <clipPath
       clipPathUnits="userSpaceOnUse"
       id="clipPath4885">
      <path
         d="M -3.9725e-5,540 H 960 V 1.2207e-4 L -4.3448e-5,6.1035e-5"
         id="path4883"
         inkscape:connector-curvature="0"
         style="clip-rule:evenodd" />
    </clipPath>
    <clipPath
       clipPathUnits="userSpaceOnUse"
       id="clipPath4875">
      <path
         d="M -1.9395e-5,540 H 960 V 1.2207e-4 L -2.3118e-5,6.1035e-5"
         id="path4873"
         inkscape:connector-curvature="0"
         style="clip-rule:evenodd" />
    </clipPath>
  </defs>
  <sodipodi:namedview
     id="base"
     pagecolor="#ffffff"
     bordercolor="#666666"
     borderopacity="1.0"
     inkscape:pageopacity="0.0"
     inkscape:pageshadow="2"
     inkscape:zoom="5.6"
     inkscape:cx="23.163811"
     inkscape:cy="32.42763"
     inkscape:document-units="mm"
     inkscape:current-layer="layer1"
     showgrid="false"
     inkscape:window-width="1920"
     inkscape:window-height="1057"
     inkscape:window-x="1912"
     inkscape:window-y="-8"
     inkscape:window-maximized="1" />
  <metadata
     id="metadata7663">
    <rdf:RDF>
      <cc:Work
         rdf:about="">
        <dc:format>image/svg+xml</dc:format>
        <dc:type
           rdf:resource="http://purl.org/dc/dcmitype/StillImage" />
        <dc:title></dc:title>
      </cc:Work>
    </rdf:RDF>
  </metadata>
  <g
     inkscape:label="Layer 1"
     inkscape:groupmode="layer"
     id="layer1"
     transform="translate(-26.073816,-37.310701)">
    <g
       id="g4879"
       transform="matrix(0.47498231,0,0,-0.35277777,-122.57985,223.70045)"
       style="fill:#ffffff;stroke:#ffffff;stroke-opacity:1">
      <path
         style="fill:#ffffff;stroke-width:0.11788137"
         d="m 331.72061,491.91799 c 0.0645,0.24686 -0.15452,0.32033 -0.2373,0.0796 -0.0278,-0.081 -0.034,-0.044 -0.0135,0.0823 0.0204,0.1263 -0.015,0.29236 -0.0786,0.36906 -0.0763,0.0919 -0.0273,1.31503 0.14413,3.59198 0.2565,3.40828 0.25691,3.45466 0.0322,3.61455 -0.12519,0.089 -0.67851,0.4576 -1.22959,0.81891 -0.5511,0.36133 -1.02853,0.69788 -1.06094,0.74789 -0.0324,0.0501 -0.26196,0.17547 -0.51009,0.27878 -0.24813,0.10332 -0.68841,0.34799 -0.97842,0.54372 -0.29001,0.19573 -0.5537,0.35586 -0.58598,0.35586 -0.0322,0 -0.34614,0.18387 -0.69747,0.40861 -0.35131,0.22474 -0.89988,0.54095 -1.21904,0.70267 -0.31916,0.16172 -0.66128,0.37505 -0.76028,0.47405 -0.099,0.099 -0.64739,0.42246 -1.21865,0.71882 -0.57125,0.29635 -1.06637,0.5792 -1.10026,0.62856 -0.10474,0.15251 -3.44324,2.13619 -3.59516,2.13619 -0.16507,0 -0.36337,-5.41817 -0.22434,-6.12982 l 0.0806,-0.4126 -0.26196,0.23199 c -0.26141,0.23149 -0.26189,0.23965 -0.2243,3.77221 0.0207,1.94711 -10e-4,3.96458 -0.0494,4.48327 -0.0479,0.51867 -0.17634,2.02503 -0.28534,3.34748 l -0.19817,2.40443 -0.45023,0.18896 c -0.24762,0.10392 -0.45077,0.25712 -0.45143,0.34045 -0.001,0.1612 -0.62052,5.65164 -0.82717,7.33397 -0.0676,0.5511 -0.19798,1.61203 -0.28952,2.35763 -0.0915,0.7456 -0.20463,1.48328 -0.25132,1.6393 -0.0484,0.16181 -0.039,0.25643 0.022,0.22024 0.0589,-0.0349 0.69049,0.004 1.40368,0.0849 0.71318,0.0816 1.77411,0.1839 2.35762,0.22733 2.2979,0.171 5.04604,0.42993 5.13289,0.4836 0.11515,0.0712 1.32958,-0.1972 1.41056,-0.31171 0.033,-0.0467 0.24517,-0.10237 0.47152,-0.12387 l 0.41155,-0.0391 -0.0312,-2.59339 c -0.0172,-1.42636 -0.0628,-3.77195 -0.10144,-5.21244 -0.066,-2.45783 -0.0844,-2.62351 -0.29951,-2.69179 -0.38386,-0.12184 -0.18593,-0.3224 0.90154,-0.91348 0.57274,-0.3113 1.31144,-0.74207 1.64157,-0.95725 0.79216,-0.51636 2.64763,-1.59879 2.75519,-1.6073 0.076,-0.006 0.79656,-0.43055 3.56064,-2.09787 0.46791,-0.28226 0.91958,-0.52328 1.00371,-0.53564 0.0841,-0.0123 0.22463,-0.0806 0.31222,-0.15169 0.0876,-0.0711 0.63666,-0.4074 1.22017,-0.74737 1.41551,-0.82471 1.60631,-1.00353 1.46562,-1.37359 -0.0605,-0.1591 -0.10999,-0.49061 -0.10999,-0.7367 0,-0.2461 -0.10472,-1.12966 -0.23271,-1.96346 -0.14604,-0.95138 -0.2832,-2.79049 -0.36827,-4.93795 -0.0746,-1.88207 -0.18293,-3.48153 -0.24085,-3.55435 -0.058,-0.0728 -0.0743,-0.21334 -0.0363,-0.31226 0.0824,-0.21459 -0.093,-0.34861 -0.33485,-0.25583 -0.17406,0.0668 -0.19719,0.52836 -0.0439,0.87732 0.0427,0.0972 0.11754,1.3041 0.16629,2.68189 0.0665,1.87863 0.0544,2.50504 -0.0487,2.50497 -0.16899,-1.1e-4 -2.6644,-1.74639 -3.19651,-2.23691 -0.21274,-0.19611 -0.43251,-0.35657 -0.48839,-0.35657 -0.0558,0 -0.13212,-0.0796 -0.16944,-0.17682 -0.0373,-0.0972 -0.14908,-0.17681 -0.24837,-0.17681 -0.0993,0 -0.18052,-0.053 -0.18052,-0.11789 0,-0.0648 -0.0764,-0.11787 -0.16987,-0.11787 -0.0934,0 -0.20001,-0.0488 -0.23686,-0.10842 -0.0749,-0.12109 -0.20214,-1.41194 -0.48338,-4.90154 -0.10451,-1.2967 -0.23875,-2.40803 -0.2983,-2.46962 -0.0596,-0.0616 -0.10829,-0.2018 -0.10829,-0.31156 0,-0.10977 -0.0735,-0.22782 -0.16348,-0.26231 -0.11469,-0.044 -0.14576,0.005 -0.10413,0.16422 z"
         id="path5709"
         inkscape:connector-curvature="0" />
    </g>
  </g>
</svg>
